<svg xmlns:rdf="http://www.w3.org/1999/02/22-rdf-syntax-ns#" xmlns="http://www.w3.org/2000/svg" height="200" width="200" version="1.1" xmlns:cc="http://creativecommons.org/ns#" xmlns:dc="http://purl.org/dc/elements/1.1/" viewBox="0 0 200 200">
<g fill="#fff">
<path opacity=".1" style="color-rendering:auto;color:#000000;isolation:auto;mix-blend-mode:normal;shape-rendering:auto;solid-color:#000000;image-rendering:auto" d="m100 0c55.4 0 100 44.6 100 100s-44.6 100-100 100-100-44.6-100-100 44.6-100 100-100z"/>
<path opacity=".1" style="color-rendering:auto;color:#000000;isolation:auto;mix-blend-mode:normal;shape-rendering:auto;solid-color:#000000;image-rendering:auto" d="m100 25c41.55 0 75 33.45 75 75s-33.45 75-75 75-75-33.45-75-75 33.45-75 75-75z"/>
<path opacity=".1" style="color-rendering:auto;color:#000000;isolation:auto;mix-blend-mode:normal;shape-rendering:auto;solid-color:#000000;image-rendering:auto" d="m100 50c27.7 0 50 22.3 50 50s-22.3 50-50 50-50-22.3-50-50 22.3-50 50-50z"/>
<path opacity=".1" style="color-rendering:auto;color:#000000;isolation:auto;mix-blend-mode:normal;shape-rendering:auto;solid-color:#000000;image-rendering:auto" d="m100 75c13.85 0 25 11.15 25 25s-11.15 25-25 25-25-11.15-25-25 11.15-25 25-25z"/>
</g>
</svg>
