<svg xmlns="http://www.w3.org/2000/svg" version="1.1" x="0px" y="0px" viewBox="0 0 463.001 463.001">
  <path d="M 159.5,0 C 247.448,0 319,71.551 319,159.5 c 0,36.188 -12.122,69.593 -32.507,96.386 l 32.311,32.311 c 0.205,0.205 0.392,0.421 0.569,0.643 2.645,-0.551 5.363,-0.84 8.127,-0.84 10.55,0 20.47,4.109 27.933,11.572 l 95.999,95.999 c 7.461,7.459 11.569,17.378 11.569,27.929 0,10.551 -4.108,20.471 -11.568,27.928 C 443.97,458.891 434.05,463 423.5,463 c -10.55,0 -20.47,-4.109 -27.933,-11.572 l -95.999,-95.999 c -7.461,-7.458 -11.569,-17.377 -11.569,-27.929 0,-2.765 0.289,-5.484 0.84,-8.129 -0.222,-0.176 -0.437,-0.363 -0.642,-0.568 l -32.31,-32.31 C 229.093,306.879 195.688,319 159.5,319 71.552,319 0,247.449 0,159.5 0,71.551 71.552,0 159.5,0 Z m 246.675,440.822 c 4.629,4.629 10.781,7.178 17.325,7.178 6.544,0 12.696,-2.549 17.326,-7.179 4.627,-4.625 7.175,-10.776 7.175,-17.321 0,-6.545 -2.548,-12.696 -7.176,-17.322 l -86.698,-86.698 -34.647,34.647 86.695,86.695 z m -97.249,-97.354 34.528,-34.528 c -4.575,-3.936 -10.258,-5.926 -15.954,-5.926 -6.274,0 -12.55,2.389 -17.326,7.166 -4.627,4.625 -7.175,10.776 -7.175,17.321 0,5.926 2.096,11.526 5.927,15.967 z m -13.655,-38.803 c 1.278,-1.796 2.706,-3.503 4.296,-5.092 1.592,-1.591 3.301,-3.02 5.098,-4.299 l -27.841,-27.841 c -3,3.259 -6.134,6.393 -9.393,9.393 l 27.84,27.839 z M 159.5,304 C 239.178,304 304,239.178 304,159.5 304,79.822 239.178,15 159.5,15 79.822,15 15,79.822 15,159.5 15,239.178 79.822,304 159.5,304 Z"
  />
  <path d="M 159.5,32 C 229.804,32 287,89.196 287,159.5 287,229.804 229.804,287 159.5,287 89.196,287 32,229.804 32,159.5 32,89.196 89.196,32 159.5,32 Z m 0,240 C 221.532,272 272,221.533 272,159.5 272,97.467 221.532,47 159.5,47 97.468,47 47,97.467 47,159.5 47,221.533 97.468,272 159.5,272 Z"
  />
  <g transform="matrix(2.8216385,0,0,2.8216385,82.249082,82.249309)" fill="#000">
    <path fill="#000" d="m -209.38477,60.476562 c -15.4937,0 -30.13582,6.069415 -41.08984,17.023438 -20.57032,20.567255 -23.01422,57.88113 -5.46094,81.27734 l -0.0937,-0.12109 43.35547,62.60352 a 4.0004,4.0004 0 0 0 6.57422,0 l 43.20117,-62.39454 c 17.61256,-23.47626 15.16993,-60.797975 -5.40039,-81.36523 -10.95395,-10.952359 -25.59628,-17.023438 -41.08594,-17.023438 z m 0,13.644532 c 11.90703,0 23.01905,4.603678 31.44141,13.023437 15.41192,15.409369 17.43543,45.792919 4.06641,63.619139 a 4.0004,4.0004 0 0 0 -0.0879,0.1211 l -35.42383,51.1582 -35.48047,-51.24024 a 4.0004,4.0004 0 0 0 -0.0879,-0.12695 c -13.29797,-17.73062 -11.27911,-48.12188 4.13281,-63.531249 8.41926,-8.419259 19.53243,-13.023437 31.43945,-13.023437 z m 0.4961,20.214844 c -13.05922,0 -23.75195,10.692742 -23.75195,23.751952 0,13.05922 10.69273,23.75391 23.75195,23.75391 13.05921,0 23.7539,-10.69469 23.7539,-23.75391 0,-13.05921 -10.69469,-23.751952 -23.7539,-23.751952 z m 0,13.646482 c 5.60975,0 10.10742,4.49572 10.10742,10.10547 0,5.60975 -4.49767,10.10742 -10.10742,10.10742 -5.60975,0 -10.10742,-4.49767 -10.10742,-10.10742 0,-5.60975 4.49767,-10.10547 10.10742,-10.10547 z"
      transform="matrix(0.35440401,0,0,0.35440401,101.58742,-22.851158)" />
  </g>
</svg>