<svg xmlns:rdf="http://www.w3.org/1999/02/22-rdf-syntax-ns#" style="enable-background:new 0 0 310.42 310.42" xmlns="http://www.w3.org/2000/svg" xml:space="preserve" height="310.42px" viewBox="0 0 310.42 310.42" width="310.42px" version="1.1" y="0px" x="0px" xmlns:cc="http://creativecommons.org/ns#" xmlns:dc="http://purl.org/dc/elements/1.1/"><g fill="#fff" transform="matrix(-1 0 0 1 310.42 0)"><g fill="#fff"><path d="m273.59 214.96c49.11-49.111 49.109-129.02 0-178.13-49.111-49.111-129.02-49.111-178.13 0-41.667 41.667-47.977 103.63-18.95 152.02 0 0 2.085 3.498-0.731 6.312-16.065 16.064-64.263 64.263-64.263 64.263-12.791 12.79-15.836 30.675-4.493 42.02l1.953 1.951c11.343 11.345 29.229 8.301 42.019-4.49 0 0 48.096-48.097 64.128-64.128 2.951-2.951 6.448-0.866 6.448-0.866 48.387 29.026 110.35 22.717 152.02-18.947zm-154.88-23.25c-36.287-36.29-36.286-95.332 0-131.62 36.288-36.287 95.332-36.288 131.62 0 36.288 36.287 36.288 95.332 0 131.62-36.288 36.286-95.331 36.286-131.62 0z"/><path fill="#fff" d="m126.75 118.42c-1.689 0-3.406-0.332-5.061-1.031-6.611-2.798-9.704-10.426-6.906-17.038 17.586-41.559 65.703-61.062 107.26-43.476 6.611 2.798 9.704 10.426 6.906 17.038-2.799 6.612-10.425 9.703-17.039 6.906-28.354-11.998-61.186 1.309-73.183 29.663-2.099 4.959-6.913 7.938-11.978 7.938z"/></g></g></svg>
