<svg version="1.1" xmlns="http://www.w3.org/2000/svg" xmlns:xlink="http://www.w3.org/1999/xlink" x="0px" y="0px"
	 viewBox="0 0 512.002 512.002" xml:space="preserve">
<circle style="fill:#FEFFF0;" cx="256.001" cy="256.001" r="256"/>
<path style="fill:#F1F2DF;" d="M256.001,0.001c-4.432,0-8.852,0.112-13.236,0.34c121.492,6.42,218.04,106.964,218.04,230.06
	c0,127.244-103.156,230.4-230.408,230.4c-123.092,0-223.636-96.544-230.06-218.04c-0.216,4.384-0.336,8.8-0.336,13.24
	c0,141.384,114.616,256,256,256c141.388,0,256-114.616,256-256S397.389,0.001,256.001,0.001z"/>
<ellipse style="fill:#EEEFE1;" cx="238.938" cy="105.245" rx="62.58" ry="59.736"/>
<path style="fill:#E5E6D3;" d="M187.742,105.245c0-31.156,25-56.712,56.892-59.46c-1.876-0.164-3.764-0.272-5.688-0.272
	c-34.564,0-62.584,26.744-62.584,59.732s28.02,59.736,62.584,59.736c1.916,0,3.812-0.112,5.688-0.272
	C212.742,161.957,187.742,136.401,187.742,105.245z"/>
<ellipse style="fill:#EEEFE1;" cx="312.882" cy="381.161" rx="96.72" ry="79.644"/>
<path style="fill:#E5E6D3;" d="M238.938,381.157c0-40.808,37.288-74.4,85.328-79.048c-3.74-0.36-7.516-0.596-11.376-0.596
	c-53.416,0-96.716,35.66-96.716,79.644s43.3,79.644,96.72,79.644c3.86,0,7.636-0.24,11.376-0.6
	C276.233,455.557,238.938,421.961,238.938,381.157z"/>
<circle style="fill:#EEEFE1;" cx="68.282" cy="238.933" r="51.2"/>
<path style="fill:#E5E6D3;" d="M34.138,238.933c0-25.368,18.46-46.36,42.668-50.432c-2.784-0.468-5.624-0.768-8.536-0.768
	c-28.276,0-51.2,22.924-51.2,51.2c0,28.276,22.916,51.2,51.2,51.2c2.912,0,5.752-0.3,8.536-0.764
	C52.597,285.297,34.138,264.301,34.138,238.933z"/>
<circle style="fill:#EEEFE1;" cx="318.602" cy="216.161" r="17.068"/>
<path style="fill:#E5E6D3;" d="M307.206,216.177c0-8.456,6.156-15.42,14.224-16.776c-0.92-0.164-1.868-0.288-2.844-0.288
	c-9.428,0-17.068,7.64-17.068,17.068s7.632,17.068,17.068,17.068c0.976,0,1.916-0.128,2.844-0.288
	C313.361,231.601,307.206,224.633,307.206,216.177z"/>
<circle style="fill:#EEEFE1;" cx="164.962" cy="421.001" r="17.068"/>
<path style="fill:#E5E6D3;" d="M153.602,420.981c0-8.456,6.156-15.424,14.22-16.78c-0.916-0.16-1.868-0.284-2.844-0.284
	c-9.416,0-17.064,7.64-17.064,17.068s7.64,17.068,17.064,17.068c0.976,0,1.92-0.124,2.844-0.288
	C159.757,436.401,153.602,429.429,153.602,420.981z"/>
<circle style="fill:#EEEFE1;" cx="73.962" cy="352.721" r="17.064"/>
<path style="fill:#E5E6D3;" d="M62.585,352.713c0-8.452,6.156-15.416,14.224-16.772c-0.924-0.164-1.876-0.288-2.844-0.288
	c-9.428,0-17.068,7.64-17.068,17.072c0,9.424,7.632,17.064,17.068,17.064c0.968,0,1.916-0.124,2.844-0.284
	C68.742,368.133,62.585,361.169,62.585,352.713z"/>
<circle style="fill:#EEEFE1;" cx="147.917" cy="68.281" r="17.068"/>
<path style="fill:#E5E6D3;" d="M136.533,68.265c0-8.456,6.156-15.42,14.232-16.776c-0.928-0.16-1.876-0.288-2.844-0.288
	c-9.428,0-17.076,7.64-17.076,17.068s7.64,17.068,17.076,17.068c0.968,0,1.916-0.128,2.844-0.288
	C142.689,83.689,136.533,76.725,136.533,68.265z"/>
<path style="fill:#EEEFE1;" d="M187.742,250.313c0,12.572-10.18,22.756-22.756,22.756c-12.572,0-22.752-10.188-22.752-22.756
	c0-12.572,10.18-22.756,22.752-22.756C177.561,227.557,187.742,237.741,187.742,250.313z"/>
<path style="fill:#E5E6D3;" d="M149.805,250.313c0-11.272,8.212-20.56,18.968-22.372c-1.248-0.212-2.5-0.384-3.796-0.384
	c-12.572,0-22.752,10.184-22.752,22.756c0,12.572,10.18,22.756,22.752,22.756c1.296,0,2.556-0.172,3.796-0.388
	C158.018,270.873,149.805,261.585,149.805,250.313z"/>
</svg>
