<svg xmlns:rdf="http://www.w3.org/1999/02/22-rdf-syntax-ns#" xmlns="http://www.w3.org/2000/svg" xml:space="preserve" height="35" width="50" version="1.1" y="0px" x="0px" xmlns:cc="http://creativecommons.org/ns#" xmlns:dc="http://purl.org/dc/elements/1.1/" viewBox="0 0 50.000002 35.000001"><path fill="#fff" d="m32.011-9.4703e-7c-0.906 0-1.663 0.74044-1.663 1.627v3.7571c0 0.88653 0.75717 1.627 1.6637 1.627 0.90656 0 1.6637-0.74044 1.6637-1.627v-3.7571c0-0.88657-0.757-1.627-1.664-1.627zm-11.545 4.6763c-0.42317 0-0.8578 0.16661-1.1745 0.47633-0.63982 0.62567-0.63981 1.6735 0 2.2992l2.7159 2.658 0.0021 0.0021c0.31874 0.30851 0.74622 0.47222 1.1724 0.47222 0.4262 0 0.85719-0.16601 1.1745-0.47634 0.63981-0.62567 0.63981-1.6735 0-2.2992l-2.714-2.6561c-0.323-0.3153-0.754-0.4763-1.177-0.4763zm23.087 0c-0.42318 0-0.8578 0.16661-1.1745 0.47633l-2.718 2.6559c-0.63981 0.62567-0.63981 1.6735 0 2.2992l0.0021 0.0021 0.0021 0.0021c0.31874 0.3085 0.74622 0.47222 1.1724 0.47222 0.4262 0 0.85353-0.16038 1.1766-0.47634l2.717-2.6561c0.63981-0.62567 0.63982-1.6735 0-2.2992-0.322-0.3153-0.753-0.4763-1.177-0.4763zm-11.542 2.9269c-2.9613 0-5.7775 1.2597-7.7198 3.4498-0.59245 0.66896-0.51862 1.7117 0.16448 2.293h0.0021c0.68597 0.58096 1.7519 0.49942 2.3427-0.16084v-0.0021l0.0021-0.0021c1.3127-1.4803 3.2089-2.3239 5.2084-2.3239 3.8093 0 6.8869 3.0105 6.8869 6.7347 0 1.8136-0.71225 3.4905-2.0264 4.7696v0.0021h-0.0021c-0.63842 0.62431-0.64499 1.6694-0.0042 2.2992h0.0021v0.0021c0.32182 0.3147 0.75643 0.47634 1.1766 0.47634 0.4145 0 0.85138-0.15943 1.1745-0.47428l0.0021-0.0021c1.9307-1.8812 3.0027-4.4095 3.0027-7.0749 0-5.4968-4.5923-9.9865-10.212-9.9865zm-6.9438 4.1015c0.001-0.0012 0.0032 0.0012 0.0042 0-0.0017 0.0019-0.0046 0.0022-0.0064 0.0041l0.0021-0.0041zm-7.5764 0.87019c-4.8699 0-9.0705 3.0455-10.691 7.4503-3.8011 0.476-6.8 3.564-6.8 7.403 1.7024e-7 4.1659 3.4858 7.572 7.7451 7.572h19.625c3.3183 0 6.2224-1.8168 7.7093-4.4912 0.27072-0.48674 0.49518-1.0033 0.66634-1.5404 0.17122-0.53718 0.29004-1.0964 0.35003-1.6723 0.02967-0.28547 0.04638-0.57776 0.04639-0.87432 0-0.29672-0.01656-0.58814-0.04639-0.87432-0.05346-0.51296-0.15904-1.0004-0.2931-1.462 0.0043 0.01491-0.0086-0.06006-0.05693-0.21239v-0.0021c-0.085-0.266-0.184-0.529-0.295-0.787l-0.0021-0.0021-0.0021-0.0021c-0.11072-0.25517-0.23209-0.50422-0.3669-0.74647-0.40562-0.72886-0.91461-1.3937-1.5098-1.9755-0.39711-0.38816-0.83238-0.73824-1.2968-1.0455-0.000131-0.000107-0.0042-0.0021-0.0042-0.0021-0.23525-0.15549-0.47464-0.29678-0.71905-0.42685l-0.0021-0.0021h-0.0021c-0.248-0.132-0.502-0.253-0.764-0.361-0.5245-0.21723-1.0754-0.38646-1.6468-0.50108-0.56995-0.11432-1.1624-0.17734-1.767-0.17734-0.14347 0-0.18682 0.0079-0.25304 0.01443-2.0889-3.2432-5.6526-5.283-9.6239-5.283zm0 3.2539c2.4696 0 4.6652 1.1096 6.1868 2.9199-1.0872 0.49659-2.1092 1.1281-2.9184 2.0352v0.0021h-0.0021c-0.59033 0.6634-0.51894 1.7098 0.16026 2.291h0.0021l0.0021 0.0021c0.67944 0.57541 1.747 0.5091 2.3427-0.15672 0.85387-0.95712 2.0246-1.5722 3.2979-1.759 0.3261-0.04675 0.58281-0.06597 0.80762-0.06597 0.37552 0 0.73886 0.03593 1.0944 0.10723 0.17872 0.03583 0.35484 0.08076 0.52295 0.13197 0.34113 0.10393 0.66635 0.23844 0.9742 0.4021 0.61741 0.32823 1.1635 0.76984 1.6089 1.297l0.0021 0.0041c0.33315 0.39502 0.61042 0.83548 0.81605 1.3094v0.0021 0.0021c0.07148 0.16503 0.13302 0.32463 0.18345 0.48252v0.0021 0.0021c0.10525 0.33041 0.1777 0.67654 0.21508 1.0351v0.0021 0.0021c0.01908 0.18418 0.02952 0.36376 0.02952 0.54026 0 0.36732-0.03688 0.72549-0.10965 1.0723v0.0021 0.0021c-0.07214 0.3426-0.18023 0.67503-0.3184 0.99396v0.0021h-0.0021s-0.002 0.004-0.0021 0.0041c-0.27559 0.63357-0.67365 1.2072-1.1661 1.6889-0.61808 0.60442-1.3807 1.0647-2.2309 1.3238-0.16775 0.05114-0.34388 0.09604-0.52295 0.13197-0.3518 0.0706-0.71521 0.10517-1.0944 0.10517h-19.625c-2.4486 0-4.4197-1.9254-4.4197-4.318 0-2.3916 1.9717-4.3189 4.4176-4.32h0.00211l0.22352 0.01031 0.052716-0.0021c0.66264-0.02982 1.3899-0.49743 1.5752-1.2352 0.8994-3.5753 4.1323-6.0521 7.8948-6.0521zm27.005 0.1361c-0.90656 0-1.6637 0.74044-1.6637 1.627 0 0.88653 0.7629 1.6249 1.6637 1.6249h3.8419c0.90083 0 1.6616-0.74398 1.6616-1.6249 0-0.88094-0.75506-1.627-1.6616-1.627h-3.8419zm-9.4384 6.6419c-0.000199-0.00014 0.10984 0.08677 0.10965 0.08661v0.0021c-0.000186-0.000167-0.10945-0.08853-0.10965-0.08867zm5.7799 1.9919c-0.42318 0-0.85418 0.16102-1.1766 0.47634-0.64268 0.62848-0.64268 1.6728 0 2.3012l2.718 2.6559 0.0021 0.0021c0.31874 0.30851 0.74621 0.47222 1.1724 0.47222 0.41929 0 0.85289-0.15762 1.1787-0.4784 0.63774-0.62591 0.63706-1.6721-0.0021-2.2971l-2.7159-2.656c-0.32245-0.31533-0.75346-0.47634-1.1766-0.47634z"/></svg>
