<svg xmlns:rdf="http://www.w3.org/1999/02/22-rdf-syntax-ns#" xmlns="http://www.w3.org/2000/svg" xml:space="preserve" height="500"
  width="500" version="1.1" y="0px" x="0px" xmlns:cc="http://creativecommons.org/ns#" xmlns:dc="http://purl.org/dc/elements/1.1/"
  viewBox="0 0 499.99999 499.99999">
  <g transform="matrix(.97418 .56244 -.56244 .97418 147.66 -122.89)">
    <path d="m221.18 480c-21.285 0-38.768-17.484-38.768-38.768v-25.085c0-5.3214 4.561-9.8824 9.8824-9.8824s9.8824 4.561 9.8824 9.8824v25.085c0 10.642 8.3615 19.004 19.004 19.004 10.643 0 19.004-8.3616 19.004-19.004v-411.95c0-5.3214 4.561-9.8824 9.8824-9.8824s9.8823 4.561 9.8823 9.8824v412.71c-0.01 20.54-17.49 38.02-38.78 38.02z"
      fill="#35495e" />
    <path d="m250 39.623c-113.14 0-239.94 107.79-239.94 240.34 0 0 19.938-19.853 59.938-19.853 38.545 0 58.406 19.178 59.808 19.853 0.04-132.5 63.638-240.34 120.19-240.34z"
      fill="#42b883" />
    <path d="m250.06 279.97s-20.058-19.853-60.062-19.853c-39.996 0-60.188 19.853-60.188 19.853 0-132.55 63.618-240.34 120.19-240.34z"
      fill="#35495e" />
    <path d="m250 39.623c113.14 0 240.06 107.79 240.06 240.34 0 0-20.064-19.853-60.062-19.853-38.545 0-58.28 19.178-59.684 19.853-0.04-132.5-63.762-240.34-120.31-240.34z"
      fill="#35495e" />
    <path d="m250.06 279.97s19.942-19.853 59.946-19.853c39.996 0 60.312 19.853 60.312 19.853-0.01-132.55-63.752-240.34-120.32-240.34z"
      fill="#42b883" />
  </g>
</svg>